<mxfile host="65bd71144e">
    <diagram id="DL5GCDiYjzgGu0tO9dvJ" name="Page-1">
        <mxGraphModel dx="894" dy="467" grid="1" gridSize="10" guides="1" tooltips="1" connect="1" arrows="1" fold="1" page="1" pageScale="1" pageWidth="850" pageHeight="1100" math="0" shadow="0">
            <root>
                <mxCell id="0"/>
                <mxCell id="1" parent="0"/>
                <mxCell id="2" value="User" style="shape=umlActor;verticalLabelPosition=bottom;verticalAlign=top;html=1;" parent="1" vertex="1">
                    <mxGeometry x="110" y="290" width="75" height="150" as="geometry"/>
                </mxCell>
                <mxCell id="3" value="Flowmi" style="verticalLabelPosition=top;verticalAlign=bottom;html=1;shape=mxgraph.basic.frame;dx=10;whiteSpace=wrap;labelPosition=center;align=center;" parent="1" vertex="1">
                    <mxGeometry x="330" y="200" width="290" height="530" as="geometry"/>
                </mxCell>
                <mxCell id="4" value="Login" style="ellipse;whiteSpace=wrap;html=1;" parent="1" vertex="1">
                    <mxGeometry x="395" y="230" width="140" height="40" as="geometry"/>
                </mxCell>
                <mxCell id="5" style="edgeStyle=none;html=1;entryX=1;entryY=0.5;entryDx=0;entryDy=0;dashed=1;" parent="1" source="7" target="4" edge="1">
                    <mxGeometry relative="1" as="geometry">
                        <Array as="points">
                            <mxPoint x="590" y="310"/>
                            <mxPoint x="590" y="250"/>
                        </Array>
                    </mxGeometry>
                </mxCell>
                <mxCell id="6" value="include" style="edgeLabel;html=1;align=center;verticalAlign=middle;resizable=0;points=[];" parent="5" vertex="1" connectable="0">
                    <mxGeometry x="-0.1333" relative="1" as="geometry">
                        <mxPoint x="-30" y="19" as="offset"/>
                    </mxGeometry>
                </mxCell>
                <mxCell id="7" value="Set User Info" style="ellipse;whiteSpace=wrap;html=1;" parent="1" vertex="1">
                    <mxGeometry x="395" y="290" width="140" height="40" as="geometry"/>
                </mxCell>
                <mxCell id="8" style="edgeStyle=none;html=1;entryX=1;entryY=0.5;entryDx=0;entryDy=0;dashed=1;" parent="1" source="10" target="4" edge="1">
                    <mxGeometry relative="1" as="geometry">
                        <Array as="points">
                            <mxPoint x="590" y="370"/>
                            <mxPoint x="590" y="310"/>
                            <mxPoint x="590" y="250"/>
                        </Array>
                    </mxGeometry>
                </mxCell>
                <mxCell id="9" value="include" style="edgeLabel;html=1;align=center;verticalAlign=middle;resizable=0;points=[];" parent="8" vertex="1" connectable="0">
                    <mxGeometry x="0.2267" y="2" relative="1" as="geometry">
                        <mxPoint x="-28" y="86" as="offset"/>
                    </mxGeometry>
                </mxCell>
                <mxCell id="10" value="Traffic Info" style="ellipse;whiteSpace=wrap;html=1;" parent="1" vertex="1">
                    <mxGeometry x="395" y="350" width="140" height="40" as="geometry"/>
                </mxCell>
                <mxCell id="11" value="Reschedule User Schedule" style="ellipse;whiteSpace=wrap;html=1;" parent="1" vertex="1">
                    <mxGeometry x="395" y="470" width="140" height="40" as="geometry"/>
                </mxCell>
                <mxCell id="12" style="edgeStyle=none;html=1;dashed=1;exitX=1;exitY=0.5;exitDx=0;exitDy=0;" parent="1" source="14" edge="1">
                    <mxGeometry relative="1" as="geometry">
                        <Array as="points">
                            <mxPoint x="590" y="553"/>
                            <mxPoint x="590" y="250"/>
                        </Array>
                        <mxPoint x="535" y="250" as="targetPoint"/>
                    </mxGeometry>
                </mxCell>
                <mxCell id="13" value="include" style="edgeLabel;html=1;align=center;verticalAlign=middle;resizable=0;points=[];" parent="12" vertex="1" connectable="0">
                    <mxGeometry x="0.3152" relative="1" as="geometry">
                        <mxPoint x="-30" y="217" as="offset"/>
                    </mxGeometry>
                </mxCell>
                <mxCell id="14" value="Real Time Route Suggestion" style="ellipse;whiteSpace=wrap;html=1;" parent="1" vertex="1">
                    <mxGeometry x="395" y="533" width="140" height="40" as="geometry"/>
                </mxCell>
                <mxCell id="15" value="" style="endArrow=none;startArrow=none;endFill=0;startFill=0;endSize=8;html=1;verticalAlign=bottom;labelBackgroundColor=none;strokeWidth=1;" parent="1" edge="1">
                    <mxGeometry width="160" relative="1" as="geometry">
                        <mxPoint x="200" y="380" as="sourcePoint"/>
                        <mxPoint x="320" y="380" as="targetPoint"/>
                    </mxGeometry>
                </mxCell>
                <mxCell id="16" value="" style="endArrow=none;startArrow=none;endFill=0;startFill=0;endSize=8;html=1;verticalAlign=bottom;labelBackgroundColor=none;strokeWidth=1;" parent="1" edge="1">
                    <mxGeometry width="160" relative="1" as="geometry">
                        <mxPoint x="200" y="380" as="sourcePoint"/>
                        <mxPoint x="320" y="250" as="targetPoint"/>
                    </mxGeometry>
                </mxCell>
                <mxCell id="17" value="" style="endArrow=none;startArrow=none;endFill=0;startFill=0;endSize=8;html=1;verticalAlign=bottom;labelBackgroundColor=none;strokeWidth=1;" parent="1" edge="1">
                    <mxGeometry width="160" relative="1" as="geometry">
                        <mxPoint x="200" y="380" as="sourcePoint"/>
                        <mxPoint x="320" y="310" as="targetPoint"/>
                    </mxGeometry>
                </mxCell>
                <mxCell id="18" value="" style="endArrow=none;startArrow=none;endFill=0;startFill=0;endSize=8;html=1;verticalAlign=bottom;labelBackgroundColor=none;strokeWidth=1;" parent="1" edge="1">
                    <mxGeometry width="160" relative="1" as="geometry">
                        <mxPoint x="200" y="380" as="sourcePoint"/>
                        <mxPoint x="320" y="430" as="targetPoint"/>
                    </mxGeometry>
                </mxCell>
                <mxCell id="19" value="" style="endArrow=none;startArrow=none;endFill=0;startFill=0;endSize=8;html=1;verticalAlign=bottom;labelBackgroundColor=none;strokeWidth=1;" parent="1" edge="1">
                    <mxGeometry width="160" relative="1" as="geometry">
                        <mxPoint x="200" y="380" as="sourcePoint"/>
                        <mxPoint x="320" y="490" as="targetPoint"/>
                    </mxGeometry>
                </mxCell>
                <mxCell id="20" style="edgeStyle=none;html=1;entryX=1;entryY=0.5;entryDx=0;entryDy=0;dashed=1;" parent="1" source="24" target="4" edge="1">
                    <mxGeometry relative="1" as="geometry">
                        <Array as="points">
                            <mxPoint x="590" y="430"/>
                            <mxPoint x="590" y="250"/>
                        </Array>
                    </mxGeometry>
                </mxCell>
                <mxCell id="21" value="include" style="edgeLabel;html=1;align=center;verticalAlign=middle;resizable=0;points=[];" parent="20" vertex="1" connectable="0">
                    <mxGeometry x="0.1523" relative="1" as="geometry">
                        <mxPoint x="-30" y="113" as="offset"/>
                    </mxGeometry>
                </mxCell>
                <mxCell id="24" value="Traffic Alert" style="ellipse;whiteSpace=wrap;html=1;" parent="1" vertex="1">
                    <mxGeometry x="395" y="411" width="140" height="40" as="geometry"/>
                </mxCell>
                <mxCell id="25" value="" style="endArrow=none;startArrow=none;endFill=0;startFill=0;endSize=8;html=1;verticalAlign=bottom;labelBackgroundColor=none;strokeWidth=1;" parent="1" edge="1">
                    <mxGeometry width="160" relative="1" as="geometry">
                        <mxPoint x="200" y="380" as="sourcePoint"/>
                        <mxPoint x="320" y="550" as="targetPoint"/>
                    </mxGeometry>
                </mxCell>
                <mxCell id="26" value="Live Road Condition" style="ellipse;whiteSpace=wrap;html=1;" parent="1" vertex="1">
                    <mxGeometry x="395" y="600" width="140" height="40" as="geometry"/>
                </mxCell>
                <mxCell id="27" value="Manage User" style="ellipse;whiteSpace=wrap;html=1;" parent="1" vertex="1">
                    <mxGeometry x="395" y="670" width="140" height="40" as="geometry"/>
                </mxCell>
                <mxCell id="28" style="edgeStyle=none;html=1;entryX=1;entryY=0.5;entryDx=0;entryDy=0;dashed=1;exitX=1;exitY=0.5;exitDx=0;exitDy=0;" parent="1" source="26" target="4" edge="1">
                    <mxGeometry relative="1" as="geometry">
                        <Array as="points">
                            <mxPoint x="590" y="620"/>
                            <mxPoint x="590" y="250"/>
                        </Array>
                        <mxPoint x="544.7100347759438" y="561.1814773536711" as="sourcePoint"/>
                        <mxPoint x="545" y="441" as="targetPoint"/>
                    </mxGeometry>
                </mxCell>
                <mxCell id="29" value="include" style="edgeLabel;html=1;align=center;verticalAlign=middle;resizable=0;points=[];" parent="28" vertex="1" connectable="0">
                    <mxGeometry x="0.3152" relative="1" as="geometry">
                        <mxPoint x="-30" y="261" as="offset"/>
                    </mxGeometry>
                </mxCell>
                <mxCell id="30" style="edgeStyle=none;html=1;dashed=1;exitX=1;exitY=0.5;exitDx=0;exitDy=0;entryX=1;entryY=0.5;entryDx=0;entryDy=0;" parent="1" source="11" target="4" edge="1">
                    <mxGeometry relative="1" as="geometry">
                        <Array as="points">
                            <mxPoint x="590" y="490"/>
                            <mxPoint x="590" y="250"/>
                        </Array>
                        <mxPoint x="545" y="320" as="sourcePoint"/>
                        <mxPoint x="540" y="250" as="targetPoint"/>
                    </mxGeometry>
                </mxCell>
                <mxCell id="31" value="include" style="edgeLabel;html=1;align=center;verticalAlign=middle;resizable=0;points=[];" parent="30" vertex="1" connectable="0">
                    <mxGeometry x="-0.1333" relative="1" as="geometry">
                        <mxPoint x="-30" y="94" as="offset"/>
                    </mxGeometry>
                </mxCell>
                <mxCell id="34" style="edgeStyle=none;html=1;entryX=1;entryY=0.5;entryDx=0;entryDy=0;dashed=1;exitX=1;exitY=0.5;exitDx=0;exitDy=0;" parent="1" source="27" target="4" edge="1">
                    <mxGeometry relative="1" as="geometry">
                        <Array as="points">
                            <mxPoint x="590" y="690"/>
                            <mxPoint x="590" y="250"/>
                        </Array>
                        <mxPoint x="545.0000000000034" y="630" as="sourcePoint"/>
                        <mxPoint x="545.0000000000034" y="260" as="targetPoint"/>
                    </mxGeometry>
                </mxCell>
                <mxCell id="35" value="include" style="edgeLabel;html=1;align=center;verticalAlign=middle;resizable=0;points=[];" parent="34" vertex="1" connectable="0">
                    <mxGeometry x="0.3152" relative="1" as="geometry">
                        <mxPoint x="-30" y="307" as="offset"/>
                    </mxGeometry>
                </mxCell>
                <mxCell id="36" value="" style="endArrow=none;startArrow=none;endFill=0;startFill=0;endSize=8;html=1;verticalAlign=bottom;labelBackgroundColor=none;strokeWidth=1;" parent="1" edge="1">
                    <mxGeometry width="160" relative="1" as="geometry">
                        <mxPoint x="200" y="380" as="sourcePoint"/>
                        <mxPoint x="320" y="610" as="targetPoint"/>
                    </mxGeometry>
                </mxCell>
                <mxCell id="37" value="" style="endArrow=none;startArrow=none;endFill=0;startFill=0;endSize=8;html=1;verticalAlign=bottom;labelBackgroundColor=none;strokeWidth=1;" parent="1" edge="1">
                    <mxGeometry width="160" relative="1" as="geometry">
                        <mxPoint x="720" y="380" as="sourcePoint"/>
                        <mxPoint x="630" y="680" as="targetPoint"/>
                    </mxGeometry>
                </mxCell>
                <mxCell id="38" value="Admin" style="shape=umlActor;verticalLabelPosition=bottom;verticalAlign=top;html=1;" vertex="1" parent="1">
                    <mxGeometry x="730" y="290" width="75" height="150" as="geometry"/>
                </mxCell>
                <mxCell id="40" value="" style="endArrow=none;startArrow=none;endFill=0;startFill=0;endSize=8;html=1;verticalAlign=bottom;labelBackgroundColor=none;strokeWidth=1;" edge="1" parent="1">
                    <mxGeometry width="160" relative="1" as="geometry">
                        <mxPoint x="720" y="380" as="sourcePoint"/>
                        <mxPoint x="630" y="250" as="targetPoint"/>
                    </mxGeometry>
                </mxCell>
                <mxCell id="41" value="" style="endArrow=none;startArrow=none;endFill=0;startFill=0;endSize=8;html=1;verticalAlign=bottom;labelBackgroundColor=none;strokeWidth=1;" edge="1" parent="1">
                    <mxGeometry width="160" relative="1" as="geometry">
                        <mxPoint x="720" y="380" as="sourcePoint"/>
                        <mxPoint x="630" y="310" as="targetPoint"/>
                    </mxGeometry>
                </mxCell>
            </root>
        </mxGraphModel>
    </diagram>
</mxfile>